<svg width="48" height="49" viewBox="0 0 48 49" fill="none" xmlns="http://www.w3.org/2000/svg">
<path d="M25.0936 2.03851C12.6881 1.31166 2.04289 10.7785 1.31605 23.184C0.589202 35.5894 10.056 46.2346 22.4615 46.9615C34.867 47.6883 45.5122 38.2215 46.239 25.816C46.9659 13.4105 37.499 2.76535 25.0936 2.03851Z" stroke="#8783E7" stroke-width="1.5" stroke-linecap="round" stroke-linejoin="round"/>
<path d="M13.5849 44.5662L14.5282 28.4658L24.4341 13.2691L32.4974 29.5186L31.5541 45.619" stroke="#8783E7" stroke-width="1.5" stroke-linecap="round" stroke-linejoin="round"/>
<path d="M14.5283 28.4665C14.5283 28.4665 16.9281 30.861 18.889 30.9759C20.8499 31.0908 23.5129 28.9929 23.5129 28.9929C23.5129 28.9929 25.9127 31.3874 27.8736 31.5023C29.8345 31.6172 32.4975 29.5193 32.4975 29.5193" stroke="#8783E7" stroke-width="1.5" stroke-linecap="round" stroke-linejoin="round"/>
</svg>
