<svg width="45" height="45" viewBox="0 0 45 45" fill="none" xmlns="http://www.w3.org/2000/svg">
<path fill-rule="evenodd" clip-rule="evenodd" d="M41.25 2.5H3.75C3.41848 2.5 3.10054 2.6317 2.86612 2.86612C2.6317 3.10054 2.5 3.41848 2.5 3.75V41.25C2.5 41.5815 2.6317 41.8995 2.86612 42.1339C3.10054 42.3683 3.41848 42.5 3.75 42.5H41.25C41.5815 42.5 41.8995 42.3683 42.1339 42.1339C42.3683 41.8995 42.5 41.5815 42.5 41.25V3.75C42.5 3.41848 42.3683 3.10054 42.1339 2.86612C41.8995 2.6317 41.5815 2.5 41.25 2.5ZM3.75 0C2.75544 0 1.80161 0.395088 1.09835 1.09835C0.395088 1.80161 0 2.75544 0 3.75V41.25C0 42.2446 0.395088 43.1984 1.09835 43.9016C1.80161 44.6049 2.75544 45 3.75 45H41.25C42.2446 45 43.1984 44.6049 43.9016 43.9016C44.6049 43.1984 45 42.2446 45 41.25V3.75C45 2.75544 44.6049 1.80161 43.9016 1.09835C43.1984 0.395088 42.2446 0 41.25 0H3.75Z" fill="#79EBB0"/>
</svg>
