<svg width="661" height="487" viewBox="0 0 661 487" fill="none" xmlns="http://www.w3.org/2000/svg">
<path d="M594.239 453.688H550.494V454.018H594.239V453.688Z" fill="#EBEBEB"/>
<path d="M437.484 457.283H426.006V457.614H437.484V457.283Z" fill="#EBEBEB"/>
<path d="M549.171 441.431H523.825V441.762H549.171V441.431Z" fill="#EBEBEB"/>
<path d="M126.338 443.652H69.2913V443.982H126.338V443.652Z" fill="#EBEBEB"/>
<path d="M146.464 443.652H138.103V443.982H146.464V443.652Z" fill="#EBEBEB"/>
<path d="M297.383 449.226H173.648V449.556H297.383V449.226Z" fill="#EBEBEB"/>
<path d="M313.037 373.529H58.0119C56.0116 373.529 54.0933 372.735 52.6789 371.32C51.2646 369.906 50.47 367.987 50.47 365.987V7.47587C50.4874 5.48709 51.2897 3.5857 52.7022 2.18557C54.1147 0.785445 56.023 -7.62458e-05 58.0119 5.55083e-09H313.037C315.037 5.55085e-09 316.955 0.794592 318.37 2.20897C319.784 3.62336 320.579 5.54167 320.579 7.54191V365.987C320.579 367.987 319.784 369.906 318.37 371.32C316.955 372.735 315.037 373.529 313.037 373.529ZM58.0119 0.264166C56.1003 0.267657 54.268 1.02858 52.9163 2.38028C51.5646 3.73198 50.8037 5.56428 50.8002 7.47587V365.987C50.8037 367.899 51.5646 369.731 52.9163 371.083C54.268 372.435 56.1003 373.195 58.0119 373.199H313.037C314.948 373.195 316.781 372.435 318.132 371.083C319.484 369.731 320.245 367.899 320.248 365.987V7.47587C320.245 5.56428 319.484 3.73198 318.132 2.38028C316.781 1.02858 314.948 0.267657 313.037 0.264166H58.0119Z" fill="#EBEBEB"/>
<path d="M598.743 373.529H343.692C341.692 373.526 339.776 372.73 338.363 371.316C336.949 369.903 336.153 367.986 336.15 365.987V7.47587C336.171 5.48817 336.974 3.58878 338.386 2.18939C339.797 0.789997 341.704 0.00336584 343.692 0H598.743C600.727 0.00687423 602.629 0.795465 604.035 2.19485C605.442 3.59424 606.241 5.49166 606.258 7.47587V365.987C606.258 367.983 605.467 369.897 604.059 371.311C602.65 372.724 600.738 373.522 598.743 373.529ZM343.692 0.264166C341.78 0.267657 339.948 1.02858 338.596 2.38028C337.244 3.73198 336.483 5.56428 336.48 7.47587V365.987C336.483 367.899 337.244 369.731 338.596 371.083C339.948 372.435 341.78 373.195 343.692 373.199H598.743C600.654 373.195 602.487 372.435 603.838 371.083C605.19 369.731 605.951 367.899 605.954 365.987V7.47587C605.951 5.56428 605.19 3.73198 603.838 2.38028C602.487 1.02858 600.654 0.267657 598.743 0.264166H343.692Z" fill="#EBEBEB"/>
<path d="M660.412 432.437H0V432.768H660.412V432.437Z" fill="#EBEBEB"/>
<path d="M129.043 59.8589H126.665V245.263H129.043V59.8589Z" fill="#E0E0E0"/>
<path d="M277.043 59.8589H274.665V245.263H277.043V59.8589Z" fill="#E0E0E0"/>
<path d="M286.355 71.5225H117.356L113.789 63.2013H289.921L286.355 71.5225Z" fill="#EBEBEB"/>
<path d="M286.355 82.9486H117.356L113.789 74.6274H289.921L286.355 82.9486Z" fill="#EBEBEB"/>
<path d="M286.355 94.3723H117.356L113.789 86.0511H289.921L286.355 94.3723Z" fill="#EBEBEB"/>
<path d="M286.355 105.796H117.356L113.789 97.4749H289.921L286.355 105.796Z" fill="#EBEBEB"/>
<path d="M286.355 117.225H117.356L113.789 108.903H289.921L286.355 117.225Z" fill="#EBEBEB"/>
<path d="M286.355 128.648H117.356L113.789 120.327H289.921L286.355 128.648Z" fill="#EBEBEB"/>
<path d="M286.355 140.072H117.356L113.789 131.751H289.921L286.355 140.072Z" fill="#EBEBEB"/>
<path d="M286.355 151.498H117.356L113.789 143.177H289.921L286.355 151.498Z" fill="#EBEBEB"/>
<path d="M286.355 162.91H117.356L113.789 154.589H289.921L286.355 162.91Z" fill="#EBEBEB"/>
<path d="M286.355 174.338H117.356L113.789 166.017H289.921L286.355 174.338Z" fill="#EBEBEB"/>
<path d="M286.355 185.76H117.356L113.789 177.438H289.921L286.355 185.76Z" fill="#EBEBEB"/>
<path d="M286.355 197.188H117.356L113.789 188.867H289.921L286.355 197.188Z" fill="#EBEBEB"/>
<path d="M286.355 208.612H117.356L113.789 200.291H289.921L286.355 208.612Z" fill="#EBEBEB"/>
<path d="M286.355 220.038H117.356L113.789 211.717H289.921L286.355 220.038Z" fill="#EBEBEB"/>
<path d="M286.355 231.462H117.356L113.789 223.141H289.921L286.355 231.462Z" fill="#EBEBEB"/>
<path d="M286.355 242.888H117.356L113.789 234.567H289.921L286.355 242.888Z" fill="#EBEBEB"/>
<path d="M289.921 242.886H113.789V247.641H289.921V242.886Z" fill="#E0E0E0"/>
<path d="M296.062 52.7817H107.646V63.8767H296.062V52.7817Z" fill="#E0E0E0"/>
<path d="M109.629 164.47C109.121 164.47 108.634 164.268 108.275 163.909C107.916 163.55 107.714 163.063 107.714 162.555V97.8345C107.714 97.583 107.763 97.3339 107.86 97.1016C107.956 96.8692 108.097 96.6581 108.275 96.4803C108.453 96.3024 108.664 96.1613 108.896 96.0651C109.129 95.9688 109.378 95.9193 109.629 95.9193C110.137 95.9193 110.624 96.1211 110.983 96.4803C111.342 96.8394 111.544 97.3266 111.544 97.8345V162.555C111.544 162.806 111.495 163.055 111.398 163.288C111.302 163.52 111.161 163.731 110.983 163.909C110.805 164.087 110.594 164.228 110.362 164.324C110.13 164.421 109.881 164.47 109.629 164.47Z" fill="#E0E0E0"/>
<path d="M110.276 61.6553H108.889V100.091H110.276V61.6553Z" fill="#E0E0E0"/>
<path d="M324.752 130.431H330.617C331.58 130.431 332.504 130.814 333.185 131.495C333.866 132.176 334.249 133.1 334.249 134.064V304.569H321.107V134.064C321.107 133.585 321.201 133.112 321.384 132.671C321.568 132.229 321.837 131.828 322.175 131.49C322.514 131.153 322.916 130.886 323.358 130.704C323.8 130.522 324.274 130.43 324.752 130.431Z" fill="#E6E6E6"/>
<path d="M328.794 130.431H325.175C324.098 130.431 323.065 130.858 322.303 131.618C321.54 132.378 321.11 133.41 321.107 134.486V304.569H324.726V134.486C324.729 133.41 325.159 132.378 325.922 131.618C326.684 130.858 327.717 130.431 328.794 130.431Z" fill="#F0F0F0"/>
<path d="M338.063 293.328H317.379V432.767H338.063V293.328Z" fill="#EBEBEB"/>
<path d="M310.023 427.128H345.421C346.759 427.128 348.043 427.659 348.989 428.605C349.935 429.552 350.467 430.835 350.467 432.173V432.754H304.978V432.173C304.978 430.835 305.509 429.552 306.455 428.605C307.402 427.659 308.685 427.128 310.023 427.128Z" fill="#E6E6E6"/>
<path d="M523.601 363.888H556.952C559.827 363.884 562.583 362.74 564.616 360.708C566.648 358.675 567.792 355.919 567.796 353.044V304.279C567.796 303.753 567.587 303.249 567.215 302.878C566.844 302.506 566.34 302.297 565.814 302.297C565.289 302.297 564.785 302.506 564.413 302.878C564.042 303.249 563.833 303.753 563.833 304.279V353.044C563.833 354.869 563.108 356.619 561.818 357.91C560.527 359.2 558.777 359.925 556.952 359.925H523.601V363.888Z" fill="#E0E0E0"/>
<path d="M514.063 410.617V365.207L511.422 364.375C509.96 363.915 508.683 363.001 507.776 361.766C506.869 360.531 506.378 359.039 506.376 357.507H531.538C531.538 359.039 531.048 360.532 530.141 361.768C529.233 363.003 527.955 363.916 526.492 364.375L523.851 365.207V410.617L544.733 420.021V423.984L518.937 414.962L493.142 423.984V420.021L514.063 410.617Z" fill="#E0E0E0"/>
<path d="M486.064 359.925H551.854C552.793 359.925 553.722 359.74 554.589 359.381C555.456 359.022 556.244 358.496 556.907 357.832C557.571 357.169 558.097 356.381 558.456 355.514C558.815 354.647 559 353.718 559 352.779C558.997 350.887 558.242 349.072 556.902 347.735C555.563 346.398 553.747 345.647 551.854 345.647H486.064C484.172 345.647 482.358 346.398 481.021 347.736C479.683 349.074 478.932 350.888 478.932 352.779C478.93 353.717 479.113 354.646 479.471 355.513C479.828 356.38 480.354 357.168 481.016 357.831C481.678 358.495 482.465 359.022 483.332 359.381C484.198 359.74 485.126 359.925 486.064 359.925Z" fill="#F0F0F0"/>
<path d="M563.438 321.435L566.991 270.663C567.122 268.779 566.5 266.92 565.262 265.493C564.024 264.067 562.271 263.19 560.387 263.055C558.501 262.921 556.638 263.541 555.209 264.779C553.78 266.018 552.901 267.773 552.766 269.659L549.213 320.432C549.082 322.317 549.704 324.178 550.941 325.606C552.179 327.034 553.932 327.914 555.817 328.053C557.705 328.183 559.567 327.56 560.996 326.32C562.424 325.079 563.303 323.323 563.438 321.435Z" fill="#EBEBEB"/>
<path d="M540.216 426.773C540.216 427.667 540.481 428.54 540.978 429.283C541.474 430.026 542.179 430.605 543.005 430.947C543.83 431.289 544.739 431.378 545.615 431.204C546.491 431.03 547.296 430.599 547.928 429.968C548.559 429.336 548.99 428.531 549.164 427.655C549.338 426.778 549.249 425.87 548.907 425.045C548.565 424.219 547.986 423.514 547.243 423.018C546.5 422.521 545.627 422.256 544.734 422.256C544.14 422.256 543.553 422.373 543.005 422.6C542.457 422.827 541.959 423.16 541.539 423.579C541.12 423.999 540.787 424.497 540.56 425.045C540.333 425.593 540.216 426.18 540.216 426.773Z" fill="#E0E0E0"/>
<path d="M488.626 426.773C488.626 427.667 488.891 428.54 489.388 429.283C489.884 430.026 490.59 430.605 491.415 430.947C492.24 431.289 493.149 431.378 494.025 431.204C494.901 431.03 495.706 430.599 496.338 429.968C496.97 429.336 497.4 428.531 497.574 427.655C497.748 426.778 497.659 425.87 497.317 425.045C496.975 424.219 496.396 423.514 495.653 423.018C494.91 422.521 494.037 422.256 493.144 422.256C491.946 422.256 490.797 422.732 489.95 423.579C489.102 424.426 488.626 425.575 488.626 426.773Z" fill="#E0E0E0"/>
<path d="M132.571 363.888H99.22C96.3428 363.888 93.5832 362.745 91.5474 360.712C89.5117 358.679 88.3663 355.921 88.3628 353.044V304.279C88.3628 303.753 88.5715 303.249 88.9431 302.878C89.3146 302.506 89.8186 302.297 90.344 302.297C90.8695 302.297 91.3734 302.506 91.745 302.878C92.1165 303.249 92.3253 303.753 92.3253 304.279V353.044C92.3288 354.87 93.0567 356.62 94.3493 357.91C95.642 359.2 97.3937 359.925 99.22 359.925H132.571V363.888Z" fill="#E0E0E0"/>
<path d="M142.106 410.617V365.207L144.748 364.375C146.208 363.914 147.483 363 148.388 361.765C149.293 360.529 149.781 359.038 149.78 357.507H124.684C124.687 359.039 125.177 360.531 126.084 361.766C126.991 363.001 128.268 363.915 129.73 364.375L132.372 365.207V410.617L111.437 420.021V423.984L137.232 414.962L163.028 423.984V420.021L142.106 410.617Z" fill="#E0E0E0"/>
<path d="M170.122 359.925H104.345C102.452 359.922 100.638 359.167 99.3006 357.828C97.9634 356.488 97.2124 354.672 97.2124 352.779C97.2124 350.888 97.9639 349.074 99.3015 347.736C100.639 346.398 102.453 345.647 104.345 345.647H170.122C172.015 345.647 173.83 346.398 175.17 347.735C176.51 349.072 177.264 350.887 177.268 352.779C177.268 354.675 176.515 356.492 175.175 357.832C173.835 359.172 172.017 359.925 170.122 359.925Z" fill="#F0F0F0"/>
<path d="M92.7227 321.435L89.1697 270.663C89.039 268.779 89.6608 266.92 90.8988 265.493C92.1369 264.067 93.8901 263.19 95.7738 263.055C97.6601 262.921 99.5226 263.541 100.952 264.779C102.381 266.018 103.26 267.773 103.395 269.659L106.988 320.445C107.119 322.33 106.497 324.191 105.259 325.619C104.022 327.047 102.268 327.927 100.384 328.066C99.4446 328.136 98.5011 328.02 97.6073 327.724C96.7134 327.429 95.8867 326.959 95.1748 326.343C94.463 325.727 93.8798 324.976 93.459 324.134C93.0382 323.292 92.788 322.375 92.7227 321.435Z" fill="#EBEBEB"/>
<path d="M115.942 426.773C115.942 427.667 115.676 428.541 115.179 429.284C114.683 430.028 113.976 430.607 113.15 430.948C112.324 431.29 111.415 431.378 110.538 431.203C109.662 431.028 108.857 430.596 108.226 429.963C107.594 429.33 107.165 428.524 106.992 427.647C106.82 426.769 106.911 425.861 107.255 425.036C107.599 424.21 108.18 423.506 108.924 423.011C109.669 422.516 110.544 422.254 111.438 422.256C112.03 422.256 112.617 422.373 113.164 422.6C113.712 422.828 114.209 423.16 114.627 423.58C115.046 424 115.377 424.498 115.603 425.046C115.828 425.594 115.943 426.181 115.942 426.773Z" fill="#E0E0E0"/>
<path d="M167.534 426.773C167.534 427.667 167.268 428.541 166.771 429.284C166.275 430.028 165.568 430.607 164.742 430.948C163.916 431.29 163.007 431.378 162.13 431.203C161.254 431.028 160.449 430.596 159.818 429.963C159.186 429.33 158.757 428.524 158.584 427.647C158.412 426.769 158.503 425.861 158.847 425.036C159.191 424.21 159.772 423.506 160.516 423.011C161.261 422.516 162.136 422.254 163.03 422.256C163.622 422.256 164.209 422.373 164.756 422.6C165.304 422.828 165.801 423.16 166.219 423.58C166.638 424 166.969 424.498 167.195 425.046C167.42 425.594 167.535 426.181 167.534 426.773Z" fill="#E0E0E0"/>
<path d="M274.309 432.769H248.553L245.911 383.925H276.95L274.309 432.769Z" fill="#EBEBEB"/>
<path d="M254.498 432.766H243.932V430.587L254.498 429.266V432.766Z" fill="#E0E0E0"/>
<path d="M249.835 379.961H273.029C274.08 379.961 275.087 380.379 275.831 381.122C276.574 381.865 276.991 382.873 276.991 383.924H245.899C245.899 382.873 246.316 381.865 247.06 381.122C247.803 380.379 248.81 379.961 249.861 379.961H249.835Z" fill="#E0E0E0"/>
<path d="M221.475 306.089H180.239V301.149L221.475 298.507V306.089Z" fill="#E0E0E0"/>
<path d="M282.445 311.121H160.493V328.001H282.445V311.121Z" fill="#F0F0F0"/>
<path d="M307.724 306.088H135.647V316.152H307.724V306.088Z" fill="#FAFAFA"/>
<path d="M291.741 432.769H299.508L286.062 316.153H276.948L291.741 432.769Z" fill="#E6E6E6"/>
<path d="M166.424 316.153H157.311L143.851 432.769H151.631L166.424 316.153Z" fill="#E6E6E6"/>
<path d="M263.227 303.578C259.704 286.09 256.182 268.594 252.66 251.088C252.158 248.592 248.328 249.648 248.83 252.145L258.881 302.125H237.087C236.562 302.125 236.058 302.334 235.687 302.705C235.315 303.077 235.106 303.581 235.106 304.106C235.106 304.631 235.315 305.135 235.687 305.507C236.058 305.879 236.562 306.087 237.087 306.087H261.298C261.603 306.085 261.904 306.013 262.177 305.877C262.45 305.741 262.689 305.545 262.875 305.303C263.061 305.061 263.189 304.78 263.25 304.481C263.311 304.182 263.303 303.873 263.227 303.578Z" fill="#E0E0E0"/>
<path d="M238.554 289.499L245.343 192.445C247.851 194.234 249.856 196.638 251.168 199.425C252.479 202.212 253.052 205.289 252.833 208.361L248.196 274.733C247.99 277.814 246.994 280.791 245.306 283.377C243.617 285.962 241.293 288.071 238.554 289.499Z" fill="#FAFAFA"/>
<path d="M291.455 277.875H280.412C278.297 277.875 276.582 279.59 276.582 281.706V302.258C276.582 304.373 278.297 306.088 280.412 306.088H291.455C293.57 306.088 295.285 304.373 295.285 302.258V281.706C295.285 279.59 293.57 277.875 291.455 277.875Z" fill="#F5F5F5"/>
<path d="M283.977 267.374C281.058 267.374 278.694 268.1 278.694 268.985C278.694 269.87 281.071 268.668 283.977 268.668C284.351 268.648 284.726 268.648 285.1 268.668V275.061H286.764V268.919C288.27 269.197 289.274 269.5 289.274 268.919C289.26 268.127 286.896 267.374 283.977 267.374Z" fill="#E0E0E0"/>
<path d="M288.918 273.054H282.961V279.011H288.918V273.054Z" fill="#F0F0F0"/>
<path d="M373.728 328.013H495.68V311.133H373.728V328.013Z" fill="#F0F0F0"/>
<path d="M348.446 316.165H520.523V306.101H348.446V316.165Z" fill="#FAFAFA"/>
<path d="M364.429 432.769H356.649L370.095 316.153H379.209L364.429 432.769Z" fill="#E6E6E6"/>
<path d="M489.749 316.153H498.862L512.308 432.769H504.529L489.749 316.153Z" fill="#E6E6E6"/>
<path d="M438.949 13.8149H436.004V105.256H438.949V13.8149Z" fill="#E0E0E0"/>
<path d="M400.75 122.875L437.495 65.855L474.227 122.875H400.75Z" fill="#E0E0E0"/>
<path d="M198.69 13.8149H195.744V87.2924H198.69V13.8149Z" fill="#E0E0E0"/>
<path d="M160.493 120.474L197.225 63.4541L233.957 120.474H160.493Z" fill="#FAFAFA"/>
<path d="M323.842 486.999C465.279 486.999 579.936 480.305 579.936 472.047C579.936 463.79 465.279 457.096 323.842 457.096C182.405 457.096 67.7471 463.79 67.7471 472.047C67.7471 480.305 182.405 486.999 323.842 486.999Z" fill="#F5F5F5"/>
<path opacity="0.2" d="M325.927 467.32V470.714C325.925 471.114 326.002 471.509 326.154 471.879C326.307 472.248 326.53 472.584 326.813 472.866C327.095 473.149 327.431 473.372 327.8 473.524C328.169 473.676 328.565 473.754 328.965 473.752H454.971C455.844 473.749 456.68 473.401 457.298 472.786C457.916 472.17 458.266 471.336 458.273 470.463V466.937C458.273 466.007 458.167 465.081 457.956 464.176C457.775 463.387 457.518 462.618 457.19 461.878L426.534 394.08H354.958L365.948 457.572C366.017 457.942 366.048 458.318 366.04 458.695C366.009 460.195 365.389 461.624 364.314 462.671C363.239 463.719 361.796 464.302 360.295 464.295H328.965C328.566 464.293 328.172 464.37 327.803 464.521C327.435 464.673 327.1 464.895 326.817 465.176C326.535 465.457 326.311 465.791 326.158 466.159C326.005 466.527 325.927 466.921 325.927 467.32Z" fill="white"/>
<path d="M461.233 461.891L430.589 394.08H426.534L457.178 461.891C457.896 463.476 458.27 465.196 458.274 466.937V470.45C458.274 471.326 457.926 472.166 457.307 472.785C456.687 473.404 455.848 473.752 454.972 473.752H459.027C459.46 473.752 459.888 473.666 460.288 473.5C460.688 473.334 461.051 473.091 461.357 472.784C461.663 472.477 461.905 472.113 462.069 471.713C462.234 471.312 462.317 470.883 462.316 470.45V466.937C462.316 465.197 461.947 463.477 461.233 461.891Z" fill="#263238"/>
<path opacity="0.3" d="M426.533 394.08H354.958L357.771 410.286H433.851L426.533 394.08Z" fill="black"/>
<path d="M567.628 169.367L550.457 366.17L548.37 390.024C548.064 393.049 546.659 395.856 544.422 397.916C542.186 399.975 539.272 401.143 536.232 401.198H230.804C229.374 401.222 227.956 400.941 226.643 400.374C225.33 399.807 224.153 398.967 223.19 397.91C222.227 396.853 221.5 395.603 221.057 394.244C220.614 392.884 220.465 391.446 220.621 390.024L222.708 366.17L239.878 169.367C240.185 166.344 241.59 163.538 243.827 161.481C246.064 159.424 248.978 158.259 252.017 158.206H557.391C559.793 158.18 562.129 158.993 563.995 160.504C564.249 160.707 564.487 160.928 564.709 161.165C565.403 161.85 565.987 162.638 566.439 163.503C566.76 164.079 567.012 164.691 567.192 165.325C567.593 166.633 567.741 168.004 567.628 169.367Z" fill="#263238"/>
<path d="M222.718 366.168L220.578 390.022C220.424 391.445 220.575 392.883 221.019 394.243C221.464 395.603 222.193 396.852 223.157 397.909C224.121 398.965 225.299 399.805 226.612 400.372C227.926 400.939 229.345 401.22 230.775 401.197H536.176C539.216 401.141 542.13 399.973 544.367 397.914C546.603 395.855 548.008 393.047 548.314 390.022L550.401 366.168H222.718Z" fill="#407BFF"/>
<path opacity="0.6" d="M222.718 366.168L220.578 390.022C220.424 391.445 220.575 392.883 221.019 394.243C221.464 395.603 222.193 396.852 223.157 397.909C224.121 398.965 225.299 399.805 226.612 400.372C227.926 400.939 229.345 401.22 230.775 401.197H536.176C539.216 401.141 542.13 399.973 544.367 397.914C546.603 395.855 548.008 393.047 548.314 390.022L550.401 366.168H222.718Z" fill="white"/>
<path d="M539.638 359.422H234.673C233.898 359.436 233.129 359.285 232.417 358.979C231.705 358.672 231.067 358.218 230.545 357.646C230.022 357.073 229.628 356.396 229.388 355.659C229.147 354.923 229.067 354.143 229.151 353.373L245.107 171.007C245.272 169.362 246.036 167.835 247.254 166.717C248.472 165.599 250.058 164.968 251.711 164.944H556.65C557.426 164.93 558.196 165.081 558.909 165.389C559.622 165.696 560.261 166.151 560.783 166.725C561.306 167.299 561.7 167.978 561.939 168.716C562.179 169.455 562.258 170.235 562.171 171.007L546.215 353.373C546.048 355.011 545.286 356.531 544.074 357.645C542.862 358.76 541.284 359.392 539.638 359.422Z" fill="#407BFF"/>
<path d="M564.189 158.205H557.387C558.816 158.18 560.235 158.459 561.547 159.024C562.86 159.59 564.038 160.428 565.001 161.484C565.965 162.54 566.692 163.789 567.135 165.148C567.578 166.507 567.727 167.945 567.571 169.366L548.313 390.023C548.007 393.048 546.602 395.855 544.365 397.914C542.129 399.974 539.215 401.141 536.175 401.197H542.924C545.965 401.142 548.881 399.974 551.12 397.916C553.359 395.857 554.766 393.049 555.076 390.023L574.373 169.366C574.531 167.945 574.384 166.506 573.942 165.146C573.5 163.786 572.772 162.536 571.808 161.48C570.844 160.423 569.666 159.585 568.352 159.02C567.039 158.455 565.619 158.177 564.189 158.205Z" fill="#263238"/>
<g opacity="0.2">
<path opacity="0.2" d="M564.192 158.205H557.389C558.819 158.18 560.237 158.459 561.55 159.024C562.862 159.59 564.04 160.428 565.003 161.484C565.967 162.54 566.694 163.789 567.137 165.148C567.58 166.507 567.729 167.945 567.573 169.366L548.315 390.023C548.009 393.048 546.604 395.855 544.368 397.914C542.131 399.974 539.217 401.141 536.177 401.197H542.926C545.968 401.142 548.883 399.974 551.122 397.916C553.361 395.857 554.769 393.049 555.078 390.023L574.375 169.366C574.533 167.945 574.386 166.506 573.944 165.146C573.502 163.786 572.774 162.536 571.811 161.48C570.847 160.423 569.668 159.585 568.355 159.02C567.041 158.455 565.621 158.177 564.192 158.205Z" fill="white"/>
</g>
<g opacity="0.1">
<path opacity="0.1" d="M348.859 164.943H337.13L295.801 359.421H307.53L348.859 164.943Z" fill="white"/>
<path opacity="0.1" d="M283.937 359.422L325.279 164.944H281.203L239.861 359.422H283.937Z" fill="white"/>
</g>
<path opacity="0.2" d="M436.494 467.345V470.568C436.494 471.41 436.161 472.218 435.567 472.814C434.972 473.411 434.166 473.748 433.324 473.751H328.979C328.173 473.751 327.401 473.431 326.831 472.862C326.261 472.292 325.941 471.519 325.941 470.713V467.332C325.941 466.526 326.261 465.754 326.831 465.184C327.401 464.614 328.173 464.294 328.979 464.294H360.322C360.717 464.294 361.111 464.255 361.498 464.175H433.337C434.176 464.179 434.979 464.514 435.57 465.108C436.162 465.703 436.494 466.507 436.494 467.345Z" fill="white"/>
<path opacity="0.2" d="M457.957 464.176H361.537C362.802 463.909 363.941 463.222 364.768 462.227C365.595 461.233 366.062 459.988 366.093 458.695H455.54L457.957 464.176Z" fill="black"/>
<path opacity="0.3" d="M549.159 197.051H402.389V366.143H549.159V197.051Z" fill="black"/>
<path d="M541.42 179.208H394.927V358.748H541.42V179.208Z" fill="white"/>
<path d="M541.42 179.208H394.927V189.828H541.42V179.208Z" fill="#263238"/>
<path opacity="0.1" d="M541.418 189.825H435.541V358.745H541.418V189.825Z" fill="black"/>
<path opacity="0.1" d="M470.504 193.868H440.759V228.262H470.504V193.868Z" fill="black"/>
<path opacity="0.1" d="M537.855 193.868H476.16V208.027H537.855V193.868Z" fill="black"/>
<path opacity="0.1" d="M537.855 214.105H476.16V290.475H537.855V214.105Z" fill="black"/>
<path opacity="0.1" d="M537.855 296.537H476.16V353.689H537.855V296.537Z" fill="black"/>
<path d="M476.172 241.405H435.213V254.56H476.172V241.405Z" fill="#407BFF"/>
<path d="M435.886 214.105H394.927V227.26H435.886V214.105Z" fill="#407BFF"/>
<path d="M537.855 309.059H476.16V315.887H537.855V309.059Z" fill="black"/>
<path d="M482.367 199.603L483.648 197.001L484.929 199.603L487.796 200.012L485.722 202.046L486.211 204.899L483.648 203.552L481.086 204.899L481.574 202.046L479.488 200.025L482.367 199.603Z" fill="#407BFF"/>
<path d="M494.042 199.603L495.324 197.001L496.618 199.603L499.484 200.012L497.411 202.046L497.899 204.899L495.337 203.552L492.761 204.899L493.25 202.046L491.176 200.025L494.042 199.603Z" fill="#407BFF"/>
<path d="M505.731 199.603L507.012 197.001L508.293 199.603L511.16 200.012L509.086 202.046L509.588 204.899L507.012 203.552L504.45 204.899L504.938 202.046L502.865 200.025L505.731 199.603Z" fill="#407BFF"/>
<path d="M517.407 199.603L518.689 197.001L519.983 199.603L522.849 200.012L520.776 202.046L521.264 204.899L518.702 203.552L516.139 204.899L516.615 202.046L514.541 200.025L517.407 199.603Z" fill="black"/>
<path d="M529.099 199.603L530.38 197.001L531.661 199.603L534.527 200.012L532.467 202.046L532.955 204.899L530.38 203.552L527.817 204.899L528.306 202.046L526.232 200.025L529.099 199.603Z" fill="black"/>
<path d="M504.82 220.84H480.557V222.161H504.82V220.84Z" fill="#263238"/>
<path d="M499.709 232.214H480.557V233.534H499.709V232.214Z" fill="#263238"/>
<path d="M499.709 242.156H480.557V243.477H499.709V242.156Z" fill="#263238"/>
<path d="M499.709 252.089H480.557V253.41H499.709V252.089Z" fill="#263238"/>
<path d="M499.709 262.025H480.557V263.346H499.709V262.025Z" fill="#263238"/>
<path d="M499.709 271.97H480.557V273.291H499.709V271.97Z" fill="#263238"/>
<path d="M499.709 281.901H480.557V283.222H499.709V281.901Z" fill="#263238"/>
<path d="M521.501 232.214H502.349V233.534H521.501V232.214Z" fill="#263238"/>
<path d="M521.501 242.156H502.349V243.477H521.501V242.156Z" fill="#263238"/>
<path d="M521.501 252.089H502.349V253.41H521.501V252.089Z" fill="#263238"/>
<path d="M521.501 262.025H502.349V263.346H521.501V262.025Z" fill="#263238"/>
<path d="M521.501 271.97H502.349V273.291H521.501V271.97Z" fill="#263238"/>
<path d="M521.501 281.901H502.349V283.222H521.501V281.901Z" fill="#263238"/>
<path d="M521.502 224.63H480.557V225.951H521.502V224.63Z" fill="#263238"/>
<path d="M521.502 303.075H480.557V304.396H521.502V303.075Z" fill="#263238"/>
<path d="M470.504 232.214H440.759V233.534H470.504V232.214Z" fill="#263238"/>
<path d="M470.504 261.151H440.759V262.472H470.504V261.151Z" fill="#263238"/>
<path d="M470.504 272.221H440.759V273.541H470.504V272.221Z" fill="#263238"/>
<path d="M470.504 283.276H440.759V284.597H470.504V283.276Z" fill="#263238"/>
<path d="M470.504 294.343H440.759V295.664H470.504V294.343Z" fill="#263238"/>
<path d="M470.504 305.413H440.759V306.734H470.504V305.413Z" fill="#263238"/>
<path d="M470.504 316.468H440.759V317.789H470.504V316.468Z" fill="#263238"/>
<path d="M470.504 327.538H440.759V328.859H470.504V327.538Z" fill="#263238"/>
<path d="M470.504 338.591H440.759V339.912H470.504V338.591Z" fill="#263238"/>
<path d="M455.631 236.48H440.759V237.801H455.631V236.48Z" fill="#263238"/>
<path d="M430.774 196.339H400.051V197.659H430.774V196.339Z" fill="#263238"/>
<path d="M430.774 204.873H400.051V206.194H430.774V204.873Z" fill="#263238"/>
<path d="M430.774 236.48H400.051V237.801H430.774V236.48Z" fill="#263238"/>
<path d="M440.812 228.093V223.906C450.122 220.578 460.28 220.471 469.659 223.602L470.557 223.906V228.093H440.812Z" fill="white"/>
<path d="M454.206 226.957C456.557 226.688 458.707 225.501 460.189 223.655C460.399 223.349 460.498 222.98 460.469 222.61C460.44 222.24 460.285 221.891 460.03 221.621C457.917 219.125 457.534 213.564 457.56 210.288L455.183 213.339L451.947 217.5C452.171 218.015 452.383 218.53 452.554 219.059C452.684 219.436 452.777 219.825 452.832 220.221C452.967 220.944 452.878 221.692 452.579 222.364C452.279 223.036 451.782 223.602 451.154 223.985C450.912 224.146 450.718 224.37 450.595 224.633C450.471 224.897 450.422 225.189 450.454 225.478C450.485 225.767 450.595 226.042 450.772 226.273C450.95 226.503 451.187 226.681 451.458 226.785C452.346 227.067 453.289 227.125 454.206 226.957Z" fill="#F7978D"/>
<path opacity="0.2" d="M451.949 217.497C452.174 218.012 452.385 218.527 452.557 219.056C452.686 219.433 452.779 219.822 452.834 220.218C453.638 219.83 454.329 219.24 454.838 218.507C455.347 217.773 455.658 216.92 455.74 216.031C455.7 215.516 455.607 215.007 455.463 214.512L451.949 217.497Z" fill="black"/>
<path d="M448.962 209.838C448.805 210.113 448.578 210.341 448.304 210.499C448.031 210.658 447.72 210.741 447.404 210.741C447.087 210.741 446.777 210.658 446.503 210.499C446.229 210.341 446.002 210.113 445.845 209.838C446.968 207.487 446.122 207.263 446.056 205.506C445.942 204.489 446.106 203.46 446.532 202.529C446.958 201.598 447.629 200.801 448.473 200.223H450.283C456.795 201.57 448.962 209.838 448.962 209.838Z" fill="#263238"/>
<path d="M459.439 204.212C459.238 203.393 458.877 202.622 458.378 201.943C457.879 201.264 457.251 200.689 456.53 200.252C455.808 199.816 455.008 199.526 454.175 199.398C453.342 199.271 452.491 199.309 451.672 199.51C446.614 200.62 444.5 207.567 444.659 212.018C444.685 213.302 445.094 214.549 445.834 215.598C446.317 216.276 446.928 216.852 447.634 217.294C448.339 217.735 449.125 218.034 449.946 218.171C450.766 218.308 451.606 218.282 452.417 218.095C453.228 217.907 453.994 217.561 454.671 217.077C457.603 215.043 458.105 212.23 459.373 207.514C459.678 206.438 459.701 205.3 459.439 204.212Z" fill="#F7978D"/>
<path d="M446.875 212.413C448.501 212.086 450.158 211.94 451.815 211.977C451.676 212.648 451.298 213.246 450.752 213.659C450.205 214.072 449.527 214.272 448.844 214.223C448.368 214.256 447.899 214.101 447.536 213.793C447.173 213.484 446.946 213.046 446.902 212.571C446.902 212.571 446.889 212.466 446.875 212.413Z" fill="#263238"/>
<path d="M449.649 213.246C448.926 213.214 448.215 213.438 447.641 213.88C447.991 214.116 448.408 214.232 448.83 214.21C449.55 214.249 450.259 214.023 450.825 213.576C450.48 213.34 450.066 213.224 449.649 213.246Z" fill="#FF5652"/>
<path d="M447.049 212.374C447.087 212.517 447.164 212.647 447.271 212.75C447.378 212.852 447.511 212.923 447.656 212.955C448.735 212.93 449.81 212.807 450.866 212.585C451.039 212.558 451.201 212.487 451.338 212.378C451.475 212.269 451.581 212.127 451.645 211.964C450.104 211.968 448.566 212.105 447.049 212.374Z" fill="white"/>
<path d="M457.692 213.76C457.692 213.76 455.592 209.005 455.764 207.46C455.807 206.539 456.124 205.652 456.675 204.913C457.226 204.174 457.985 203.617 458.855 203.312L460.625 203.682C468.325 206.865 457.692 213.76 457.692 213.76Z" fill="#263238"/>
<path d="M448.053 210.976C447.728 211.003 447.4 210.957 447.094 210.843C446.788 210.729 446.511 210.549 446.283 210.315C447.257 209.451 448.11 208.461 448.819 207.37L448.053 210.976Z" fill="#FF5652"/>
<path d="M459.329 208.688C458.114 208.503 456.819 210.009 456.291 211.092C455.762 212.175 456.106 213.469 457.387 213.179C458.406 212.902 459.297 212.281 459.91 211.422C460.689 210.313 460.531 208.86 459.329 208.688Z" fill="#F7978D"/>
<path d="M451.617 207.264C451.353 207.264 451.075 207.541 451.009 207.898C450.943 208.254 451.088 208.598 451.339 208.637C451.59 208.677 451.828 208.4 451.934 208.017C452.039 207.634 451.868 207.369 451.617 207.264Z" fill="#263238"/>
<path d="M447.271 206.298C447.02 206.298 446.743 206.523 446.664 206.919C446.585 207.315 446.73 207.659 446.981 207.698C447.232 207.738 447.509 207.461 447.588 207.064C447.668 206.668 447.522 206.338 447.271 206.298Z" fill="#263238"/>
<path d="M448.236 204.793C448.203 204.809 448.167 204.818 448.131 204.818C448.094 204.818 448.058 204.809 448.025 204.793C447.743 204.698 447.442 204.669 447.147 204.708C446.852 204.747 446.569 204.853 446.321 205.018C446.279 205.06 446.222 205.083 446.163 205.083C446.103 205.083 446.046 205.06 446.004 205.018C445.966 204.971 445.946 204.913 445.946 204.853C445.946 204.793 445.966 204.734 446.004 204.687C446.311 204.477 446.663 204.341 447.032 204.288C447.401 204.235 447.776 204.268 448.131 204.384C448.187 204.405 448.234 204.446 448.261 204.5C448.288 204.554 448.293 204.616 448.276 204.674C448.271 204.716 448.258 204.757 448.236 204.793Z" fill="#263238"/>
<path d="M452.966 206.695C452.887 206.692 452.811 206.659 452.755 206.603C452.592 206.356 452.376 206.15 452.122 205.999C451.868 205.848 451.583 205.756 451.289 205.731C451.258 205.733 451.228 205.728 451.199 205.718C451.17 205.707 451.144 205.691 451.121 205.67C451.099 205.649 451.081 205.624 451.069 205.596C451.057 205.567 451.051 205.537 451.051 205.507C451.054 205.448 451.079 205.393 451.12 205.351C451.162 205.31 451.217 205.285 451.276 205.282C451.646 205.303 452.007 205.41 452.33 205.593C452.653 205.776 452.93 206.031 453.138 206.339C453.178 206.384 453.2 206.443 453.2 206.504C453.2 206.564 453.178 206.623 453.138 206.669C453.113 206.685 453.085 206.696 453.055 206.701C453.025 206.705 452.995 206.703 452.966 206.695Z" fill="#263238"/>
<path d="M447.219 202.745C446.98 201.886 446.904 200.99 446.994 200.103C447.13 199.661 447.357 199.251 447.662 198.903C447.967 198.555 448.343 198.275 448.764 198.082C450.09 197.652 451.519 197.652 452.845 198.082C453.166 198.131 453.475 198.239 453.757 198.399C453.901 198.478 454.022 198.595 454.106 198.737C454.189 198.879 454.233 199.04 454.232 199.205C454.21 199.369 454.145 199.524 454.043 199.654C453.941 199.785 453.805 199.885 453.651 199.945C453.347 200.09 451.009 200.645 449.953 201.028C448.916 201.37 447.977 201.959 447.219 202.745Z" fill="#263238"/>
<path d="M462.104 200.185C462.957 200.983 463.549 202.02 463.804 203.161C464.058 204.301 463.963 205.492 463.531 206.577C463.16 207.342 462.75 208.087 462.302 208.809L459.027 206.564C457.534 205.767 456.373 204.466 455.751 202.892C455.414 202.064 454.797 201.38 454.008 200.96C453.219 200.54 452.307 200.411 451.432 200.594C450.983 200.686 450.362 200.779 450.111 200.356C449.86 199.934 450.573 199.035 451.075 198.652C453.043 196.909 456.676 195.971 462.104 200.185Z" fill="#263238"/>
<path opacity="0.2" d="M455.686 202.666C454.47 200.552 452.925 200.354 450.878 200.671C450.893 200.418 450.959 200.17 451.072 199.943C451.186 199.716 451.344 199.514 451.538 199.35C453.15 198.029 455.342 201.133 455.686 202.666Z" fill="black"/>
<path d="M449.98 200.328C449.822 200.501 449.709 200.71 449.65 200.936C449.496 201.525 449.464 202.139 449.554 202.74C449.645 203.342 449.857 203.919 450.178 204.436C449.651 203.853 449.275 203.15 449.082 202.389C448.921 201.921 448.836 201.431 448.831 200.936C448.841 200.441 449.039 199.969 449.386 199.615C449.557 199.449 449.773 199.335 450.007 199.288C450.241 199.242 450.484 199.263 450.706 199.351C450.971 199.483 451.42 199.985 451.103 200.223C450.786 200.46 450.403 199.906 449.98 200.328Z" fill="#263238"/>
<path opacity="0.3" d="M447.044 160.825V294.822H300.288V125.73H439.331V160.825H447.044Z" fill="black"/>
<path d="M439.333 107.873H292.84V287.412H439.333V107.873Z" fill="white"/>
<path d="M439.319 107.873H292.826V118.492H439.319V107.873Z" fill="#263238"/>
<path opacity="0.1" d="M439.333 118.492H333.456V287.412H439.333V118.492Z" fill="black"/>
<path opacity="0.1" d="M368.391 122.533H338.66V156.927H368.391V122.533Z" fill="black"/>
<path opacity="0.1" d="M435.766 122.533H374.07V136.692H435.766V122.533Z" fill="black"/>
<path opacity="0.1" d="M435.766 142.77H374.07V219.14H435.766V142.77Z" fill="black"/>
<path opacity="0.1" d="M435.766 225.199H374.07V282.351H435.766V225.199Z" fill="black"/>
<path d="M374.07 170.079H333.112V183.235H374.07V170.079Z" fill="#407BFF"/>
<path d="M333.784 142.77H292.825V155.925H333.784V142.77Z" fill="#407BFF"/>
<path d="M435.766 237.723H374.07V244.552H435.766V237.723Z" fill="black"/>
<path d="M380.264 128.265L381.545 125.663L382.826 128.265L385.692 128.688L383.619 130.709L384.121 133.562L381.545 132.214L378.983 133.575L379.471 130.709L377.398 128.688L380.264 128.265Z" fill="#407BFF"/>
<path d="M391.954 128.265L393.222 125.663L394.516 128.265L397.382 128.688L395.309 130.709L395.797 133.562L393.235 132.214L390.673 133.575L391.161 130.709L389.074 128.688L391.954 128.265Z" fill="#407BFF"/>
<path d="M403.629 128.265L404.91 125.663L406.192 128.265L409.071 128.688L406.997 130.709L407.486 133.562L404.91 132.214L402.348 133.575L402.837 130.709L400.763 128.688L403.629 128.265Z" fill="#407BFF"/>
<path d="M415.319 128.265L416.6 125.663L417.881 128.265L420.747 128.688L418.674 130.709L419.176 133.562L416.6 132.214L414.038 133.575L414.526 130.709L412.439 128.688L415.319 128.265Z" fill="black"/>
<path d="M426.994 128.265L428.276 125.663L429.57 128.265L432.436 128.688L430.362 130.709L430.851 133.562L428.289 132.214L425.713 133.575L426.202 130.709L424.128 128.688L426.994 128.265Z" fill="black"/>
<path d="M402.718 149.505H378.455V150.826H402.718V149.505Z" fill="#263238"/>
<path d="M397.607 160.888H378.455V162.209H397.607V160.888Z" fill="#263238"/>
<path d="M397.607 170.823H378.455V172.144H397.607V170.823Z" fill="#263238"/>
<path d="M397.607 180.754H378.455V182.075H397.607V180.754Z" fill="#263238"/>
<path d="M397.607 190.702H378.455V192.022H397.607V190.702Z" fill="#263238"/>
<path d="M397.607 200.632H378.455V201.953H397.607V200.632Z" fill="#263238"/>
<path d="M397.607 210.58H378.455V211.901H397.607V210.58Z" fill="#263238"/>
<path d="M419.4 160.888H400.248V162.209H419.4V160.888Z" fill="#263238"/>
<path d="M419.4 170.823H400.248V172.144H419.4V170.823Z" fill="#263238"/>
<path d="M419.4 180.754H400.248V182.075H419.4V180.754Z" fill="#263238"/>
<path d="M419.4 190.702H400.248V192.022H419.4V190.702Z" fill="#263238"/>
<path d="M419.4 200.632H400.248V201.953H419.4V200.632Z" fill="#263238"/>
<path d="M419.4 210.58H400.248V211.901H419.4V210.58Z" fill="#263238"/>
<path d="M419.4 153.295H378.455V154.616H419.4V153.295Z" fill="#263238"/>
<path d="M419.4 231.751H378.455V233.072H419.4V231.751Z" fill="#263238"/>
<path d="M368.405 160.888H338.66V162.209H368.405V160.888Z" fill="#263238"/>
<path d="M368.405 189.816H338.66V191.136H368.405V189.816Z" fill="#263238"/>
<path d="M368.405 200.885H338.66V202.206H368.405V200.885Z" fill="#263238"/>
<path d="M368.405 211.953H338.66V213.273H368.405V211.953Z" fill="#263238"/>
<path d="M368.405 223.008H338.66V224.329H368.405V223.008Z" fill="#263238"/>
<path d="M368.405 234.075H338.66V235.396H368.405V234.075Z" fill="#263238"/>
<path d="M368.405 245.145H338.66V246.466H368.405V245.145Z" fill="#263238"/>
<path d="M368.405 256.2H338.66V257.521H368.405V256.2Z" fill="#263238"/>
<path d="M368.405 267.268H338.66V268.588H368.405V267.268Z" fill="#263238"/>
<path d="M353.532 165.157H338.66V166.478H353.532V165.157Z" fill="#263238"/>
<path d="M328.672 125.001H297.949V126.322H328.672V125.001Z" fill="#263238"/>
<path d="M328.672 133.547H297.949V134.868H328.672V133.547Z" fill="#263238"/>
<path d="M328.672 165.157H297.949V166.478H328.672V165.157Z" fill="#263238"/>
<path d="M338.737 156.811V152.624C348.043 149.295 358.197 149.188 367.57 152.32L368.469 152.624V156.811H338.737Z" fill="#263238"/>
<path d="M358.115 141.754L354.984 144.237L350.745 147.618C350.986 148.111 351.138 148.643 351.194 149.19C351.329 149.779 351.248 150.397 350.964 150.931C350.68 151.465 350.213 151.879 349.648 152.096C349.067 152.241 348.327 154.975 351.828 155.345C352.831 155.517 353.859 155.481 354.848 155.238C355.837 154.995 356.764 154.55 357.573 153.932C358.379 153.192 358.63 152.756 358.154 151.686C356.754 148.675 357.322 144.791 358.115 141.754Z" fill="#DD8C6A"/>
<path opacity="0.2" d="M351.775 146.784L354.522 144.275C354.516 144.376 354.516 144.477 354.522 144.579C354.557 145.018 354.557 145.46 354.522 145.899C354.304 146.726 353.888 147.487 353.31 148.117C352.733 148.748 352.011 149.228 351.207 149.518V149.201C351.14 148.693 351.007 148.196 350.811 147.722V147.643L351.775 146.784Z" fill="black"/>
<path d="M349.606 139.531C348.113 135.053 348.932 132.768 347.215 130.285C346.185 129.625 343.953 131.355 344.692 135.013C345.432 138.672 349.606 139.531 349.606 139.531Z" fill="#263238"/>
<path d="M358.893 136.255C358.405 141.116 358.312 143.969 355.75 146.306C351.88 149.833 345.976 147.218 345.038 142.344C344.179 137.893 345.183 130.708 350.044 129.136C351.75 128.572 353.61 128.709 355.215 129.516C356.82 130.324 358.038 131.736 358.603 133.442C358.899 134.348 358.999 135.307 358.893 136.255Z" fill="#DD8C6A"/>
<path d="M358.8 140.616L356.687 140.735L356.277 137.499L354.323 135.94L353.768 130.881C353.768 130.881 358.232 130.881 359.949 130.881C360.557 130.881 362.38 132.823 362.591 133.523C362.841 134.535 362.805 135.597 362.488 136.59C362.171 137.584 361.585 138.47 360.795 139.15C360.183 139.706 359.514 140.198 358.8 140.616Z" fill="#263238"/>
<path d="M358.868 132.888C357.627 133.535 356.081 132.822 354.747 132.452C353.419 132.037 352.07 131.694 350.705 131.422C349.51 131.175 348.266 131.372 347.205 131.976C346.692 132.292 346.311 132.784 346.134 133.36C345.956 133.936 345.995 134.557 346.241 135.107C345.495 134.717 344.856 134.151 344.379 133.458C343.902 132.764 343.601 131.965 343.503 131.129C343.406 130.293 343.514 129.446 343.818 128.661C344.123 127.877 344.614 127.178 345.25 126.627C346.469 125.65 347.981 125.111 349.543 125.095C351.093 125.087 352.639 125.251 354.153 125.584C356.174 125.94 359.079 125.914 360.942 126.772C362.804 127.631 362.632 130.92 358.868 132.888Z" fill="#263238"/>
<path d="M360.731 140.086C360.427 141.135 359.751 142.037 358.829 142.622C357.627 143.362 356.583 142.107 356.689 140.734C356.794 139.36 357.732 137.828 359.04 137.656C360.347 137.484 361.087 138.779 360.731 140.086Z" fill="#DD8C6A"/>
<path d="M351.18 137.776C351.18 138.185 350.968 138.516 350.704 138.529C350.44 138.542 350.242 138.225 350.215 137.816C350.189 137.406 350.44 137.063 350.704 137.063C350.968 137.063 351.18 137.367 351.18 137.776Z" fill="#263238"/>
<path d="M346.583 137.921C346.583 138.33 346.372 138.674 346.108 138.674C345.843 138.674 345.619 138.357 345.619 137.96C345.619 137.564 345.843 137.221 346.108 137.208C346.372 137.194 346.583 137.511 346.583 137.921Z" fill="#263238"/>
<path d="M348.064 138.17C347.721 139.27 347.232 140.318 346.611 141.288C346.86 141.434 347.139 141.523 347.427 141.548C347.715 141.573 348.005 141.534 348.275 141.433L348.064 138.17Z" fill="#FF5652"/>
<path d="M348.697 143.809C349.168 143.81 349.634 143.715 350.067 143.532C350.501 143.348 350.893 143.078 351.22 142.74C351.241 142.715 351.251 142.683 351.249 142.651C351.246 142.619 351.231 142.589 351.206 142.568C351.182 142.547 351.15 142.536 351.118 142.539C351.086 142.541 351.056 142.557 351.035 142.581C350.675 142.945 350.237 143.222 349.754 143.392C349.271 143.561 348.756 143.618 348.248 143.559C348.232 143.555 348.216 143.554 348.2 143.557C348.184 143.559 348.169 143.565 348.155 143.574C348.142 143.582 348.13 143.594 348.121 143.607C348.112 143.62 348.106 143.635 348.102 143.651C348.099 143.684 348.107 143.717 348.127 143.744C348.146 143.771 348.175 143.79 348.208 143.796C348.37 143.815 348.534 143.819 348.697 143.809Z" fill="#263238"/>
<path d="M352.079 136.309C352.118 136.319 352.159 136.319 352.198 136.309C352.221 136.288 352.239 136.262 352.252 136.234C352.264 136.205 352.271 136.175 352.271 136.144C352.271 136.113 352.264 136.082 352.252 136.054C352.239 136.025 352.221 136 352.198 135.979C351.971 135.681 351.674 135.444 351.333 135.289C350.992 135.135 350.617 135.067 350.244 135.094C350.179 135.1 350.12 135.132 350.078 135.181C350.036 135.23 350.015 135.293 350.019 135.358C350.022 135.389 350.032 135.419 350.047 135.447C350.062 135.475 350.082 135.499 350.107 135.519C350.131 135.538 350.16 135.553 350.19 135.562C350.22 135.57 350.252 135.573 350.283 135.569C350.576 135.556 350.867 135.613 351.134 135.735C351.4 135.856 351.634 136.04 351.815 136.269C351.849 136.303 351.893 136.325 351.941 136.333C351.988 136.34 352.037 136.331 352.079 136.309Z" fill="#263238"/>
<path d="M346.558 135.28C346.569 135.242 346.569 135.2 346.558 135.161C346.554 135.13 346.545 135.1 346.53 135.072C346.515 135.045 346.494 135.02 346.47 135.001C346.445 134.981 346.417 134.966 346.387 134.958C346.356 134.949 346.325 134.946 346.293 134.95C345.919 134.968 345.556 135.079 345.235 135.273C344.915 135.467 344.648 135.737 344.457 136.06C344.441 136.087 344.431 136.118 344.427 136.15C344.422 136.181 344.425 136.214 344.433 136.244C344.442 136.275 344.457 136.304 344.477 136.329C344.497 136.354 344.522 136.375 344.55 136.39C344.608 136.418 344.675 136.423 344.736 136.403C344.798 136.383 344.849 136.341 344.88 136.284C345.032 136.031 345.244 135.82 345.498 135.671C345.751 135.521 346.039 135.436 346.333 135.426C346.381 135.427 346.428 135.413 346.468 135.388C346.508 135.362 346.539 135.324 346.558 135.28Z" fill="#263238"/>
<path opacity="0.3" d="M385.52 197.449H238.75V366.541H385.52V197.449Z" fill="black"/>
<path d="M377.781 179.591H231.289V359.131H377.781V179.591Z" fill="white"/>
<path d="M377.781 179.591H231.289V190.211H377.781V179.591Z" fill="#263238"/>
<path opacity="0.1" d="M377.798 190.225H271.92V359.145H377.798V190.225Z" fill="black"/>
<path opacity="0.1" d="M306.854 194.265H277.122V228.66H306.854V194.265Z" fill="black"/>
<path opacity="0.1" d="M374.23 194.265H312.534V208.425H374.23V194.265Z" fill="black"/>
<path opacity="0.1" d="M374.23 214.488H312.534V290.858H374.23V214.488Z" fill="black"/>
<path opacity="0.1" d="M374.23 296.932H312.534V354.084H374.23V296.932Z" fill="black"/>
<path d="M312.532 241.802H271.574V254.958H312.532V241.802Z" fill="#407BFF"/>
<path d="M272.248 214.488H231.29V227.643H272.248V214.488Z" fill="#407BFF"/>
<path d="M374.23 309.442H312.534V316.27H374.23V309.442Z" fill="black"/>
<path d="M318.726 199.995L320.007 197.393L321.288 199.995L324.168 200.405L322.081 202.426L322.583 205.292L320.007 203.945L317.445 205.292L317.934 202.439L315.86 200.418L318.726 199.995Z" fill="#407BFF"/>
<path d="M330.418 199.995L331.699 197.393L332.981 199.995L335.847 200.405L333.773 202.426L334.262 205.292L331.699 203.945L329.137 205.292L329.626 202.439L327.539 200.418L330.418 199.995Z" fill="#407BFF"/>
<path d="M342.094 199.995L343.375 197.393L344.656 199.995L347.535 200.405L345.462 202.426L345.95 205.292L343.388 203.945L340.812 205.292L341.301 202.439L339.227 200.418L342.094 199.995Z" fill="#407BFF"/>
<path d="M353.782 199.995L355.063 197.393L356.345 199.995L359.211 200.405L357.137 202.426L357.626 205.292L355.063 203.945L352.501 205.292L352.99 202.439L350.916 200.418L353.782 199.995Z" fill="#407BFF"/>
<path d="M365.459 199.995L366.74 197.393L368.034 199.995L370.901 200.405L368.827 202.426L369.316 205.292L366.753 203.945L364.191 205.292L364.666 202.439L362.593 200.418L365.459 199.995Z" fill="black"/>
<path d="M341.183 221.235H316.919V222.556H341.183V221.235Z" fill="#263238"/>
<path d="M336.071 232.609H316.919V233.929H336.071V232.609Z" fill="#263238"/>
<path d="M336.071 242.554H316.919V243.875H336.071V242.554Z" fill="#263238"/>
<path d="M336.071 252.489H316.919V253.81H336.071V252.489Z" fill="#263238"/>
<path d="M336.071 262.418H316.919V263.738H336.071V262.418Z" fill="#263238"/>
<path d="M336.071 272.365H316.919V273.686H336.071V272.365Z" fill="#263238"/>
<path d="M336.071 282.298H316.919V283.619H336.071V282.298Z" fill="#263238"/>
<path d="M357.876 232.609H338.724V233.929H357.876V232.609Z" fill="#263238"/>
<path d="M357.876 242.554H338.724V243.875H357.876V242.554Z" fill="#263238"/>
<path d="M357.876 252.489H338.724V253.81H357.876V252.489Z" fill="#263238"/>
<path d="M357.876 262.418H338.724V263.738H357.876V262.418Z" fill="#263238"/>
<path d="M357.876 272.365H338.724V273.686H357.876V272.365Z" fill="#263238"/>
<path d="M357.876 282.298H338.724V283.619H357.876V282.298Z" fill="#263238"/>
<path d="M357.865 225.028H316.919V226.349H357.865V225.028Z" fill="#263238"/>
<path d="M357.865 303.472H316.919V304.793H357.865V303.472Z" fill="#263238"/>
<path d="M306.867 232.609H277.122V233.929H306.867V232.609Z" fill="#263238"/>
<path d="M306.867 261.548H277.122V262.869H306.867V261.548Z" fill="#263238"/>
<path d="M306.867 272.618H277.122V273.939H306.867V272.618Z" fill="#263238"/>
<path d="M306.867 283.671H277.122V284.992H306.867V283.671Z" fill="#263238"/>
<path d="M306.867 294.741H277.122V296.061H306.867V294.741Z" fill="#263238"/>
<path d="M306.867 305.793H277.122V307.114H306.867V305.793Z" fill="#263238"/>
<path d="M306.867 316.863H277.122V318.184H306.867V316.863Z" fill="#263238"/>
<path d="M306.867 327.931H277.122V329.251H306.867V327.931Z" fill="#263238"/>
<path d="M306.867 338.988H277.122V340.309H306.867V338.988Z" fill="#263238"/>
<path d="M291.994 236.875H277.122V238.196H291.994V236.875Z" fill="#263238"/>
<path d="M267.136 196.736H236.414V198.057H267.136V196.736Z" fill="#263238"/>
<path d="M267.136 205.268H236.414V206.589H267.136V205.268Z" fill="#263238"/>
<path d="M267.136 236.875H236.414V238.196H267.136V236.875Z" fill="#263238"/>
<path d="M277.122 228.66V224.459C286.435 221.144 296.588 221.038 305.969 224.156L306.867 224.459V228.66H277.122Z" fill="#407BFF"/>
<path d="M289.394 198.597C288.447 198.332 287.451 198.292 286.485 198.48C285.52 198.668 284.612 199.079 283.833 199.68C282.274 200.891 281.073 202.503 280.36 204.343C280.087 204.817 279.944 205.355 279.944 205.902C279.944 206.448 280.087 206.986 280.36 207.46C281.06 208.345 282.407 208.292 283.543 208.16C285.3 204.832 287.386 201.794 289.394 198.597Z" fill="#263238"/>
<path d="M288.349 218.673C289.195 220.707 289.67 222.979 287.028 224.802C286.484 225.178 286.084 225.727 285.892 226.36C285.615 227.391 285.972 228.553 289.789 227.364C295.31 225.647 295.68 222.305 295.68 222.305C293.329 220.918 293.038 215.199 293.249 212.003L288.349 218.673Z" fill="#FFB573"/>
<path opacity="0.2" d="M291.901 216.52C291.901 217.92 290.078 219.677 288.837 220.245C288.717 219.701 288.544 219.17 288.322 218.66L291.254 214.698C291.596 215.252 291.817 215.874 291.901 216.52Z" fill="black"/>
<path d="M296.315 204.316C296.052 203.446 295.621 202.637 295.045 201.935C294.469 201.232 293.76 200.65 292.959 200.222C292.158 199.794 291.28 199.528 290.376 199.439C289.472 199.351 288.559 199.441 287.69 199.706C282.526 201.238 281.086 208.688 281.68 213.35C282.354 218.568 288.39 220.654 292.63 217.088C295.47 214.711 295.708 212.558 296.513 207.512C296.693 206.446 296.625 205.352 296.315 204.316Z" fill="#FFB573"/>
<path d="M284.769 211.791C284.5 211.83 284.225 211.811 283.963 211.736C283.701 211.661 283.458 211.531 283.25 211.355C283.984 210.566 284.602 209.676 285.086 208.714L284.769 211.791Z" fill="#ED893E"/>
<path d="M288.653 212.52C288.673 212.496 288.684 212.465 288.684 212.434C288.684 212.402 288.673 212.372 288.653 212.348C288.642 212.336 288.628 212.327 288.614 212.321C288.599 212.314 288.583 212.311 288.567 212.311C288.551 212.311 288.535 212.314 288.52 212.321C288.505 212.327 288.492 212.336 288.481 212.348C288.131 212.726 287.695 213.016 287.21 213.193C286.726 213.37 286.206 213.429 285.694 213.365C285.662 213.367 285.632 213.38 285.608 213.402C285.584 213.423 285.568 213.452 285.562 213.484C285.561 213.515 285.572 213.545 285.591 213.569C285.61 213.593 285.637 213.61 285.668 213.616C285.866 213.629 286.064 213.629 286.262 213.616C287.172 213.576 288.03 213.183 288.653 212.52Z" fill="#263238"/>
<path d="M284.702 200.314C285.63 200.25 286.555 200.468 287.357 200.939C288.158 201.411 288.798 202.114 289.193 202.955C289.51 203.779 289.74 204.633 289.88 205.505C290.022 206.382 290.401 207.204 290.976 207.882C291.272 208.209 291.664 208.434 292.096 208.524C292.528 208.614 292.978 208.565 293.38 208.384C293.619 209.16 294.061 209.858 294.66 210.406C295.259 210.954 295.993 211.332 296.788 211.501C295.652 213.152 294.239 214.883 293.103 216.534C293.512 217.854 293.552 218.066 293.961 219.347C295.377 218.894 296.689 218.167 297.822 217.206C298.955 216.245 299.888 215.069 300.565 213.747C301.886 211.105 302.177 207.79 299.667 207.71C300.552 205.927 298.927 202.189 297.593 200.71C296.353 199.598 294.877 198.782 293.275 198.324C291.673 197.867 289.988 197.779 288.348 198.068C286.907 198.367 285.617 199.162 284.702 200.314Z" fill="#263238"/>
<path d="M297.713 211.08C297.757 210.641 297.627 210.202 297.35 209.858C297.073 209.514 296.672 209.294 296.233 209.244C294.913 209.138 294.001 210.657 293.737 211.753C293.473 212.85 294.133 214.052 295.375 213.629C296.305 213.304 297.069 212.625 297.501 211.74C297.619 211.538 297.691 211.312 297.713 211.08Z" fill="#FFB573"/>
<path d="M289.644 206.219C289.683 206.229 289.724 206.229 289.763 206.219C289.807 206.171 289.832 206.107 289.832 206.041C289.832 205.975 289.807 205.911 289.763 205.863C289.474 205.493 289.099 205.199 288.671 205.008C288.243 204.817 287.774 204.734 287.306 204.766C287.273 204.769 287.242 204.779 287.213 204.795C287.185 204.811 287.16 204.833 287.14 204.859C287.12 204.885 287.106 204.915 287.098 204.947C287.09 204.978 287.089 205.011 287.095 205.044C287.098 205.075 287.107 205.105 287.122 205.133C287.138 205.161 287.158 205.185 287.183 205.205C287.207 205.224 287.235 205.239 287.266 205.247C287.296 205.256 287.327 205.259 287.359 205.255C287.744 205.241 288.128 205.317 288.479 205.477C288.83 205.638 289.138 205.878 289.38 206.18C289.415 206.21 289.459 206.23 289.506 206.237C289.553 206.244 289.6 206.238 289.644 206.219Z" fill="#263238"/>
<path d="M281.997 206.483C282.038 206.472 282.075 206.449 282.102 206.417C282.339 206.112 282.644 205.867 282.993 205.701C283.341 205.536 283.724 205.455 284.11 205.466C284.143 205.469 284.177 205.467 284.208 205.457C284.24 205.448 284.27 205.432 284.296 205.411C284.321 205.391 284.343 205.365 284.359 205.336C284.374 205.306 284.384 205.274 284.388 205.241C284.388 205.174 284.364 205.109 284.321 205.058C284.277 205.007 284.216 204.973 284.15 204.964C283.682 204.946 283.216 205.04 282.791 205.238C282.366 205.435 281.995 205.731 281.706 206.1C281.662 206.139 281.635 206.193 281.629 206.252C281.622 206.31 281.638 206.369 281.672 206.416C281.707 206.464 281.758 206.497 281.815 206.509C281.873 206.522 281.933 206.512 281.984 206.483H281.997Z" fill="#263238"/>
<path d="M288.427 207.472C288.427 207.921 288.149 208.291 287.846 208.278C287.542 208.265 287.317 207.882 287.344 207.419C287.37 206.957 287.621 206.614 287.912 206.614C288.202 206.614 288.44 207.01 288.427 207.472Z" fill="#263238"/>
<path d="M283.831 207.857C283.831 208.293 283.567 208.636 283.276 208.623C282.985 208.61 282.787 208.253 282.8 207.804C282.814 207.355 283.065 207.025 283.355 207.038C283.646 207.051 283.857 207.368 283.831 207.857Z" fill="#263238"/>
<path d="M283.476 207.063L282.446 206.72C282.446 206.72 282.948 207.565 283.476 207.063Z" fill="#263238"/>
<path d="M288.044 206.654L286.961 206.284C286.961 206.284 287.489 207.169 288.044 206.654Z" fill="#263238"/>
<path d="M119.721 257.559C109.498 257.559 109.498 248.802 109.498 248.802L196.342 155.446L196.792 153.425L201.771 158.061C201.733 158.131 201.689 158.197 201.639 158.259C201.362 158.774 125.48 257.559 119.721 257.559Z" fill="#263238"/>
<g opacity="0.5">
<path opacity="0.4" d="M250.47 134.114C239.071 151.734 219.985 165.259 207.979 158.985C208.04 158.927 208.085 158.855 208.111 158.774L201.507 155.181C197.082 151.219 194.586 145.394 193.952 138.552C192.948 127.986 196.29 115.2 203.58 103.352C216.432 82.4569 237.38 73.1715 247.049 78.9435C248.629 79.8871 250.155 80.919 251.619 82.0342H251.685C252.964 82.8751 254.178 83.8111 255.317 84.8344C255.856 85.3629 256.343 85.9424 256.77 86.5646C259.232 90.155 260.633 94.3664 260.812 98.7162C261.71 108.966 258.315 122.029 250.47 134.114Z" fill="white"/>
</g>
<path opacity="0.2" d="M260.826 98.4647L201.521 154.864C197.096 150.901 194.6 145.077 193.953 138.235V138.129L256.745 86.3131C259.215 89.9024 260.629 94.1122 260.826 98.4647Z" fill="white"/>
<path d="M254.989 135.91C269.399 112.637 267.603 85.3618 250.907 75.033C234.212 64.7041 209.024 75.2443 194.601 98.504C180.56 121.196 181.894 147.625 197.361 158.535C197.784 158.866 198.22 159.13 198.682 159.42C200.486 160.542 202.426 161.429 204.454 162.062C220.74 167.293 242.137 156.66 254.989 135.91ZM206.647 157.677C205.722 157.422 204.834 157.049 204.005 156.567C203.875 156.515 203.751 156.448 203.635 156.369L203.08 156.013L202.922 155.907C202.128 155.403 201.381 154.828 200.69 154.19C190.44 144.865 191.444 122.49 203.582 103.034C216.513 82.1786 237.673 72.9461 246.588 78.2161C248.039 79.0812 249.441 80.0247 250.789 81.0427C251.479 81.52 252.116 82.069 252.691 82.6805C260.616 90.9621 258.172 111.329 246.285 130.521C234.397 149.712 217.609 160.873 206.647 157.677Z" fill="#263238"/>
<g opacity="0.4">
<path opacity="0.4" d="M250.43 133.77C239.018 151.43 219.945 164.955 207.939 158.655C208 158.597 208.045 158.524 208.071 158.443L206.658 157.664C217.594 160.874 234.554 149.581 246.362 130.548C258.17 111.515 260.732 91.0286 252.754 82.7338C252.494 82.4488 252.216 82.1797 251.922 81.9281C253.124 82.7201 254.263 83.6033 255.33 84.5697C255.867 85.0869 256.349 85.6578 256.77 86.2736C259.218 89.868 260.625 94.0685 260.838 98.412C261.644 108.635 258.262 121.725 250.43 133.77Z" fill="black"/>
</g>
<path d="M85.1968 340.322C85.7119 343.783 89.1592 345.923 92.4217 347.27C98.2553 349.688 104.461 351.086 110.768 351.404C115.547 334.454 118.879 317.128 120.727 299.615C105.154 309.283 82.4891 322.201 85.1968 340.322Z" fill="#263238"/>
<path opacity="0.2" d="M85.1968 340.322C85.7119 343.783 89.1592 345.923 92.4217 347.27C98.2553 349.688 104.461 351.086 110.768 351.404C115.547 334.454 118.879 317.128 120.727 299.615C105.154 309.283 82.4891 322.201 85.1968 340.322Z" fill="black"/>
<path d="M164.048 131.183C164.537 131.103 165.065 131.632 165.211 132.385C165.356 133.137 165.078 133.851 164.577 133.93C164.075 134.009 163.56 133.494 163.414 132.728C163.269 131.962 163.546 131.275 164.048 131.183Z" fill="#263238"/>
<path d="M165.383 141.22C166.027 141.268 166.674 141.174 167.279 140.946C167.883 140.718 168.431 140.361 168.883 139.899C167.007 138.192 165.368 136.242 164.009 134.101L165.383 141.22Z" fill="#B74D3C"/>
<path d="M160.15 128.975C160.512 128.526 160.978 128.172 161.507 127.942C162.036 127.712 162.613 127.613 163.188 127.654H163.346C163.467 127.654 163.582 127.607 163.669 127.523C163.755 127.439 163.805 127.325 163.809 127.205C163.81 127.144 163.8 127.083 163.779 127.027C163.757 126.97 163.724 126.918 163.683 126.874C163.641 126.83 163.591 126.794 163.535 126.769C163.48 126.745 163.42 126.731 163.36 126.729C162.646 126.649 161.924 126.74 161.253 126.995C160.582 127.25 159.982 127.661 159.503 128.195C159.465 128.234 159.435 128.279 159.414 128.329C159.394 128.379 159.384 128.432 159.384 128.486C159.38 128.546 159.389 128.606 159.409 128.663C159.429 128.719 159.46 128.772 159.501 128.816C159.542 128.86 159.591 128.896 159.646 128.921C159.7 128.946 159.76 128.96 159.82 128.961C159.925 129.005 160.042 129.01 160.15 128.975Z" fill="#263238"/>
<path d="M154.181 174.939C141.171 174.807 139.322 167.688 139.322 167.688C143.284 163.989 143.614 157.042 142.914 150.834C143.929 152.324 145.215 153.61 146.705 154.625C148.064 155.589 149.611 156.256 151.245 156.584C152.879 156.912 154.563 156.892 156.189 156.527C156.245 156.538 156.304 156.538 156.36 156.527C156.321 156.647 156.295 156.771 156.281 156.897C155.396 161.85 155.977 167.159 161.155 168.784C161.142 168.771 168.512 175.084 154.181 174.939Z" fill="#CB7A63"/>
<path d="M156.757 154.653C156.59 155.252 156.457 155.861 156.361 156.476C156.304 156.487 156.246 156.487 156.189 156.476C154.564 156.841 152.879 156.861 151.245 156.533C149.612 156.205 148.065 155.538 146.706 154.574C145.215 153.56 143.929 152.274 142.915 150.783C142.743 149.211 142.492 147.679 142.228 146.266L156.229 154.297L156.757 154.653Z" fill="#CB7A63"/>
<path d="M135.349 168.798C135.349 168.798 137.528 162.498 140.632 160.556C143.736 158.615 157.354 160.979 159.467 161.877C161.58 162.775 163.641 167.715 163.641 167.715L135.349 168.798Z" fill="#263238"/>
<path opacity="0.5" d="M135.349 168.798C135.349 168.798 137.528 162.498 140.632 160.556C143.736 158.615 157.354 160.979 159.467 161.877C161.58 162.775 163.641 167.715 163.641 167.715L135.349 168.798Z" fill="white"/>
<path d="M166.293 144.229C166.207 146.462 165.556 148.636 164.401 150.549C163.246 152.462 161.625 154.05 159.689 155.166H159.61C158.613 155.777 157.525 156.223 156.387 156.487C156.33 156.498 156.272 156.498 156.215 156.487C154.589 156.852 152.905 156.871 151.271 156.544C149.637 156.216 148.091 155.549 146.731 154.585C145.241 153.57 143.955 152.284 142.941 150.794C140.458 147.254 139.493 142.565 137.803 135.961C137.232 133.826 137.215 131.58 137.753 129.436C138.292 127.292 139.369 125.321 140.881 123.709C142.394 122.098 144.293 120.898 146.398 120.225C148.503 119.551 150.746 119.426 152.913 119.86C162.74 121.868 166.676 135.446 166.293 144.229Z" fill="#CB7A63"/>
<path opacity="0.2" d="M159.584 155.18C158.588 155.791 157.499 156.237 156.361 156.501L156.837 150.716C156.837 150.716 158.897 155.18 159.584 155.18Z" fill="black"/>
<path d="M135.346 132.555C134.025 135.196 131.067 138.195 129.812 140.823C129.001 142.151 128.614 143.694 128.702 145.248C128.821 146.055 129.25 146.784 129.9 147.278C130.549 147.772 131.367 147.991 132.176 147.889C130.855 149.765 131.833 152.856 133.854 154.137C134.897 154.761 136.124 155.005 137.327 154.83C138.53 154.654 139.636 154.069 140.458 153.173C141.779 154.599 142.769 155.656 144.777 155.682C145.759 155.692 146.732 155.504 147.64 155.13C148.548 154.755 149.371 154.202 150.06 153.503C150.968 154.472 152.151 155.139 153.45 155.416C154.749 155.692 156.101 155.564 157.325 155.048C158.483 154.499 159.417 153.567 159.971 152.411C160.524 151.254 160.662 149.942 160.363 148.695C159.643 146.515 159.308 144.227 159.372 141.932C159.372 141.932 162.212 137.759 161.049 135.236L159.808 127.311C157.593 125.631 154.859 124.78 152.081 124.907C149.312 125.039 146.587 125.646 144.024 126.703C140.445 128.117 136.892 129.305 135.346 132.555Z" fill="#263238"/>
<path d="M156.944 132.08C159.652 132.939 160.999 137.007 161.065 139.569C161.144 142.396 159.216 144.139 156.786 142.211C154.962 140.711 153.677 138.656 153.127 136.36C152.519 133.612 154.223 131.274 156.944 132.08Z" fill="#CB7A63"/>
<path d="M131.266 466.642C129.945 466.576 128.703 466.325 128.347 465.717C128.249 465.555 128.206 465.366 128.225 465.178C128.244 464.99 128.324 464.813 128.452 464.674C128.545 464.535 128.665 464.417 128.806 464.328C128.948 464.239 129.106 464.182 129.271 464.159C131.002 463.789 134.37 465.995 134.555 466.087C134.593 466.115 134.623 466.154 134.64 466.198C134.656 466.243 134.659 466.292 134.647 466.338C134.638 466.388 134.612 466.434 134.574 466.468C134.535 466.501 134.487 466.521 134.436 466.523C133.385 466.655 132.324 466.694 131.266 466.642ZM129.839 464.595C129.686 464.575 129.531 464.575 129.377 464.595C129.274 464.608 129.174 464.643 129.086 464.698C128.997 464.753 128.921 464.825 128.862 464.912C128.677 465.202 128.717 465.334 128.862 465.44C129.271 466.114 131.847 466.259 133.762 466.113C132.585 465.356 131.27 464.84 129.892 464.595H129.839Z" fill="#407BFF"/>
<path d="M134.369 466.501H134.263C133.088 465.88 130.869 463.595 131.172 462.432C131.172 462.155 131.463 461.838 132.137 461.798C132.377 461.785 132.618 461.82 132.845 461.902C133.072 461.984 133.28 462.11 133.457 462.274C134.712 463.423 134.659 466.157 134.659 466.236C134.653 466.279 134.639 466.32 134.616 466.356C134.593 466.393 134.563 466.424 134.527 466.448C134.483 466.485 134.426 466.504 134.369 466.501ZM132.269 462.287H132.084C131.648 462.287 131.595 462.485 131.582 462.538C131.41 463.225 132.903 465.021 134.078 465.853C134.07 464.703 133.7 463.585 133.021 462.657C132.919 462.539 132.793 462.444 132.652 462.375C132.512 462.307 132.359 462.268 132.203 462.261L132.269 462.287Z" fill="#407BFF"/>
<path d="M146.786 443.477L136.668 442.936L135.414 466.314L145.584 466.856L146.786 443.477Z" fill="#CB7A63"/>
<path d="M133.049 465.799C125.745 469.656 123.605 469.762 115.442 471.083C113.659 471.373 114.386 475.653 118.573 475.877C125.507 476.26 126.26 475.97 132.164 476.287C137.223 476.564 143.021 477.106 147.036 477.383C147.159 477.403 147.284 477.403 147.406 477.383C147.808 477.327 148.171 477.116 148.418 476.795C148.665 476.474 148.776 476.068 148.727 475.666L147.578 466.539C147.548 466.342 147.452 466.162 147.306 466.027C147.159 465.893 146.971 465.812 146.772 465.799L135.638 465.205C134.737 465.167 133.843 465.372 133.049 465.799Z" fill="#263238"/>
<path opacity="0.2" d="M146.798 443.49L146.045 457.609L135.888 457.068L136.667 442.948L146.798 443.49Z" fill="black"/>
<path d="M160.867 239.622C160.867 239.622 160.009 307.076 157.724 338.869C155.584 368.482 148.966 454.797 148.966 454.797L131.796 453.86C131.796 453.86 128.19 365.179 127.833 334.985C127.516 306.376 126.116 238.328 126.116 238.328L160.867 239.622Z" fill="#407BFF"/>
<path d="M160.867 239.622C160.867 239.622 160.009 307.076 157.724 338.869C155.584 368.482 148.966 454.797 148.966 454.797L131.796 453.86C131.796 453.86 128.19 365.179 127.833 334.985C127.516 306.376 126.116 238.328 126.116 238.328L160.867 239.622Z" fill="#263238"/>
<path opacity="0.6" d="M160.867 239.622C160.867 239.622 160.009 307.076 157.724 338.869C155.584 368.482 148.966 454.797 148.966 454.797L131.796 453.86C131.796 453.86 128.19 365.179 127.833 334.985C127.516 306.376 126.116 238.328 126.116 238.328L160.867 239.622Z" fill="white"/>
<path d="M152.068 448.917L150.906 455.178L129.997 454.055C129.997 454.055 129.654 446.936 129.733 446.936L152.068 448.917Z" fill="#263238"/>
<g opacity="0.5">
<path opacity="0.5" d="M152.068 448.919L150.906 455.18L129.997 454.057C129.997 454.057 129.654 446.938 129.733 446.938L152.068 448.919Z" fill="white"/>
</g>
<path d="M235.891 464.755C235.772 463.434 235.825 462.18 236.366 461.691C236.509 461.565 236.687 461.486 236.876 461.464C237.065 461.443 237.256 461.481 237.423 461.572C237.568 461.641 237.697 461.739 237.804 461.859C237.911 461.979 237.992 462.12 238.044 462.272C238.664 463.883 237 467.674 236.921 467.859C236.903 467.907 236.87 467.947 236.827 467.973C236.784 467.999 236.733 468.01 236.683 468.004C236.635 468.001 236.588 467.982 236.55 467.952C236.513 467.921 236.485 467.88 236.472 467.833C236.192 466.825 235.998 465.796 235.891 464.755ZM237.713 462.919C237.726 462.765 237.726 462.611 237.713 462.457C237.687 462.36 237.639 462.27 237.572 462.195C237.506 462.119 237.423 462.06 237.33 462.021C237.013 461.889 236.868 462.021 236.802 462.087C236.194 462.629 236.419 465.178 236.868 467.027C237.416 465.725 237.716 464.332 237.753 462.919H237.713Z" fill="#407BFF"/>
<path d="M236.431 467.767C236.424 467.737 236.424 467.705 236.431 467.675C236.866 466.354 238.821 463.712 239.984 463.712C240.261 463.712 240.618 463.884 240.736 464.518C240.788 464.758 240.789 465.006 240.742 465.247C240.694 465.487 240.598 465.716 240.459 465.918C239.535 467.384 236.814 467.926 236.708 467.952C236.667 467.96 236.624 467.957 236.585 467.943C236.546 467.929 236.511 467.905 236.483 467.873C236.454 467.845 236.435 467.808 236.431 467.767ZM240.274 464.835V464.677C240.274 464.254 240.01 464.241 239.957 464.254C239.257 464.254 237.699 466.063 237.065 467.398C238.21 467.146 239.255 466.557 240.063 465.707C240.247 465.449 240.34 465.138 240.327 464.822L240.274 464.835Z" fill="#407BFF"/>
<path d="M229.008 444.915L219.247 446.698L226.789 469.615L236.629 467.818L229.008 444.915Z" fill="#CB7A63"/>
<path d="M238.886 466.248C241.845 469.115 243.403 470.581 251.381 472.166C253.138 472.509 251.975 476.775 247.788 476.868C240.867 477.026 244.658 476.617 238.754 476.749C233.708 476.855 227.91 477.224 223.895 477.383C223.759 477.403 223.621 477.403 223.485 477.383C223.296 477.342 223.117 477.265 222.958 477.154C222.799 477.043 222.664 476.902 222.561 476.738C222.458 476.574 222.388 476.392 222.356 476.201C222.324 476.01 222.331 475.815 222.376 475.626L224.41 466.513C224.452 466.312 224.561 466.132 224.72 466.002C224.879 465.873 225.077 465.801 225.282 465.799L236.377 465.548C236.82 465.491 237.271 465.524 237.702 465.644C238.133 465.764 238.536 465.97 238.886 466.248Z" fill="#263238"/>
<path opacity="0.2" d="M229.021 444.927L232.931 456.696L223.13 458.492L219.247 446.697L229.021 444.927Z" fill="black"/>
<path opacity="0.3" d="M160.573 283.974C159.252 306.824 158.103 334.165 157.165 349.368C157.165 350.108 157.059 350.861 157.033 351.679C152.806 327.561 146.466 288.28 158.156 284.225C158.942 284.008 159.759 283.924 160.573 283.974Z" fill="black"/>
<path d="M130.764 242.752C130.764 242.752 133.035 266.249 136.694 276.565C141.872 291.16 148.331 295.862 153.297 304.593C162.054 319.98 166.928 333.202 172.832 345.446C191.323 383.75 216.921 451.204 216.921 451.204L235.413 449.883L169.913 241.629L130.764 242.752Z" fill="#263238"/>
<path opacity="0.6" d="M130.764 242.752C130.764 242.752 133.035 266.249 136.694 276.565C141.872 291.16 148.331 295.862 153.297 304.593C162.054 319.98 166.928 333.202 172.832 345.446C191.323 383.75 216.921 451.204 216.921 451.204L235.413 449.883L169.913 241.629L130.764 242.752Z" fill="white"/>
<path d="M238.688 445.96L238.912 452.314L217.423 455.523C217.423 455.523 215.481 448.655 215.56 448.655L238.688 445.96Z" fill="#263238"/>
<g opacity="0.5">
<path opacity="0.5" d="M238.688 445.963L238.912 452.316L217.423 455.526C217.423 455.526 215.481 448.657 215.56 448.657L238.688 445.963Z" fill="white"/>
</g>
<path d="M136.336 225.288C135.438 227.534 133.324 232.011 130.088 234.653C129.726 234.952 129.289 235.149 128.825 235.223C128.361 235.298 127.885 235.247 127.447 235.076C127.447 235.076 121.754 231.562 121.305 229.977C121.286 229.881 121.286 229.782 121.305 229.687L122.718 223.082L122.89 223.016C123.92 222.673 129.494 220.969 131.845 221.92L135.53 223.399C135.72 223.453 135.894 223.549 136.042 223.679C136.19 223.809 136.306 223.971 136.384 224.152C136.461 224.333 136.497 224.529 136.488 224.725C136.48 224.922 136.428 225.114 136.336 225.288Z" fill="#CB7A63"/>
<path d="M127.051 184.648L107.728 203.47L122.93 223.071L122.759 223.137L121.345 229.741C121.326 229.837 121.326 229.936 121.345 230.032C120.388 230.385 119.354 230.481 118.347 230.309C118.347 230.309 89.5136 206.891 91.1382 202.849C92.6855 199.65 94.4507 196.561 96.4215 193.603L96.6196 193.3C99.1688 189.073 115.204 165.074 127.263 165.206C136.799 165.285 136.284 176.261 127.051 184.648Z" fill="#407BFF"/>
<path opacity="0.5" d="M127.053 184.648L107.729 203.47L122.932 223.071L122.76 223.137L121.347 229.741C121.327 229.837 121.327 229.936 121.347 230.032C120.389 230.385 119.355 230.481 118.348 230.309C118.348 230.309 89.1582 210.272 91.1394 202.849C91.6942 200.723 94.2302 196.985 96.4227 193.603L96.6209 193.3C99.1701 189.073 115.205 165.074 127.264 165.206C136.8 165.285 136.285 176.261 127.053 184.648Z" fill="black"/>
<path d="M121.36 229.98C121.341 229.884 121.341 229.786 121.36 229.69L122.773 223.086L122.945 223.02L123.421 223.218C123.421 223.218 124.953 228.607 121.36 229.98Z" fill="#263238"/>
<path d="M216.802 341.375C187.11 348.6 190.042 324.205 149.229 340.055C137.209 344.73 130.222 332.658 123.723 330.677C110.766 326.714 96.356 327.929 84.9441 335.234C93.1743 301.894 106.466 270.014 124.358 240.702C125.295 233.808 128.043 219.226 120.58 178.439C119.259 170.949 126.973 164.53 134.567 164.134L139.362 163.777C146.612 163.436 153.875 163.511 161.116 164.002C163.533 164.24 165.884 164.61 167.971 165.006C170.681 165.513 173.173 166.832 175.117 168.787C177.06 170.743 178.364 173.242 178.855 175.955C180.146 183.29 180.589 190.749 180.176 198.185C179.885 205.938 178.987 216.069 177.138 230.07C176.675 233.583 176.147 237.347 175.553 241.389C175.553 241.389 195.022 288.133 216.802 341.375Z" fill="#407BFF"/>
<path opacity="0.5" d="M216.802 341.375C187.11 348.6 190.042 324.205 149.229 340.055C137.209 344.73 130.222 332.658 123.723 330.677C110.766 326.714 96.356 327.929 84.9441 335.234C93.1743 301.894 106.466 270.014 124.358 240.702C125.295 233.808 128.043 219.226 120.58 178.439C119.259 170.949 126.973 164.53 134.567 164.134L139.362 163.777C146.612 163.436 153.875 163.511 161.116 164.002C163.533 164.24 165.884 164.61 167.971 165.006C170.681 165.513 173.173 166.832 175.117 168.787C177.06 170.743 178.364 173.242 178.855 175.955C180.146 183.29 180.589 190.749 180.176 198.185C179.885 205.938 178.987 216.069 177.138 230.07C176.675 233.583 176.147 237.347 175.553 241.389C175.553 241.389 195.022 288.133 216.802 341.375Z" fill="black"/>
<path opacity="0.2" d="M180.175 198.212C179.885 205.965 178.987 216.095 177.137 230.096C176.001 217.839 173.981 205.806 166.716 181.226L179.924 185.439C180.188 189.52 180.228 193.866 180.175 198.212Z" fill="black"/>
<path d="M173.61 144.851C173.461 144.452 173.191 144.111 172.838 143.874C172.485 143.637 172.066 143.517 171.642 143.53C168.855 143.305 167.402 143.094 164.8 144.124C164.604 144.19 164.43 144.309 164.298 144.468C164.224 144.629 164.187 144.805 164.192 144.983C164.192 146.528 164.1 148.073 164.047 149.606C163.979 149.948 164.027 150.304 164.182 150.617C164.337 150.93 164.592 151.182 164.905 151.336C166.332 152.34 173.081 155.774 173.081 155.774C174.402 155.919 177.255 153.37 178.444 152.696L173.61 144.851Z" fill="#CB7A63"/>
<path d="M171.248 155.945L178.83 151.876C178.83 151.876 198.483 176.972 199.646 178.993C208.892 195.279 196.185 194.843 192.579 192.597C184.298 187.459 185.103 180.036 181.854 173.538L171.248 155.945Z" fill="#407BFF"/>
<g opacity="0.5">
<path opacity="0.5" d="M171.246 155.947L178.827 151.879C178.827 151.879 198.481 176.975 199.643 178.995C208.889 195.281 196.183 194.845 192.577 192.6C184.295 187.462 185.101 180.039 181.852 173.54L171.246 155.947Z" fill="black"/>
</g>
<path d="M176.042 168.466C184.605 174.839 193.584 180.633 202.92 185.809L203.383 187.75C203.612 188.691 203.587 189.676 203.31 190.605C203.034 191.533 202.516 192.371 201.809 193.033C201.102 193.696 200.232 194.158 199.288 194.374C198.344 194.59 197.359 194.551 196.435 194.262L194.137 193.549C194.137 193.549 164.048 185.32 163.388 176.655C159.386 171.702 166.835 160.039 176.042 168.466Z" fill="#407BFF"/>
<path opacity="0.5" d="M176.042 168.466C184.605 174.839 193.584 180.633 202.92 185.809L203.383 187.75C203.612 188.691 203.587 189.676 203.31 190.605C203.034 191.533 202.516 192.371 201.809 193.033C201.102 193.696 200.232 194.158 199.288 194.374C198.344 194.59 197.359 194.551 196.435 194.262L194.137 193.549C194.137 193.549 164.048 185.32 163.388 176.655C159.386 171.702 166.835 160.039 176.042 168.466Z" fill="black"/>
<path d="M163.904 125.159L159.704 126.162L132.402 132.674C132.334 132.471 132.281 132.264 132.244 132.053C131.946 130.827 131.73 129.583 131.597 128.329C131.504 127.457 131.438 126.585 131.425 125.687C131.266 116.441 135.77 108.516 142.89 106.839C150.009 105.161 157.577 110.128 161.619 118.475C161.976 119.215 162.306 120.007 162.61 120.8C163.078 122 163.462 123.231 163.759 124.485C163.785 124.762 163.864 124.974 163.904 125.159Z" fill="#263238"/>
<path opacity="0.5" d="M163.785 125.159L159.585 126.189L132.283 132.701C132.283 132.516 132.178 132.291 132.125 132.08C131.831 130.854 131.619 129.609 131.491 128.355L162.464 120.866C162.932 122.066 163.316 123.298 163.613 124.551C163.785 124.762 163.785 124.974 163.785 125.159Z" fill="black"/>
<path d="M174.008 125.37C174.102 125.762 174.117 126.169 174.051 126.567C173.986 126.965 173.843 127.346 173.629 127.687C173.415 128.029 173.135 128.325 172.805 128.558C172.476 128.79 172.104 128.955 171.71 129.042L128.651 139.331C127.865 139.518 127.036 139.385 126.348 138.961C125.66 138.538 125.167 137.858 124.979 137.072C124.878 136.676 124.858 136.263 124.922 135.859C124.986 135.455 125.131 135.068 125.349 134.721C125.781 134.05 126.459 133.576 127.238 133.401L170.336 123.098C170.727 123.006 171.131 122.992 171.527 123.056C171.923 123.12 172.302 123.262 172.643 123.473C172.984 123.684 173.28 123.96 173.515 124.285C173.749 124.611 173.917 124.98 174.008 125.37Z" fill="#263238"/>
</svg>
